<svg id="SvgjsSvg1001" width="288" height="288" xmlns="http://www.w3.org/2000/svg" version="1.1" xmlns:xlink="http://www.w3.org/1999/xlink" xmlns:svgjs="http://svgjs.com/svgjs"><defs id="SvgjsDefs1002"></defs><g id="SvgjsG1008"><svg xmlns="http://www.w3.org/2000/svg" viewBox="0 0 274.5 60.4" width="288" height="288"><path fill="#fff" d="m121.5 48.7c.6 0 1.2.2 1.7.2h1.6s1.1 0 1.6 0c.6 0 1.1 0 1.7-.2v-11.6c0-1.7.2-3 .6-4 .4-.9.9-1.6 1.5-2.1s1.2-.8 1.9-.9 1.3-.2 1.8-.2h.8 1.2c.1-.6.2-1.2.3-1.8 0-.6 0-1.2 0-1.7s0-.9 0-1.3 0-.8-.1-1.1c-.2 0-.5-.1-.9-.1s-.8 0-1.1 0c-1.5 0-2.8.4-3.8 1.2s-1.9 1.6-2.5 2.6c0-.2 0-.5-.1-.8 0-.3-.1-.7-.2-1 0-.3-.1-.6-.2-.9 0-.3-.2-.5-.3-.7-.4 0-.9-.2-1.3-.2-.5 0-.9 0-1.4 0s-1 0-1.4 0-.9.1-1.3.2v24.4zm-19.2-14.8c.2-1.6.6-2.8 1.5-3.7.8-.9 2-1.3 3.6-1.3s2.5.5 3.2 1.4c.8.9 1.2 2.1 1.2 3.7h-9.5zm15.6 4.6c0-.3.1-.8.2-1.4 0-.6 0-1.2 0-1.8 0-1.6-.2-3.2-.7-4.6s-1.2-2.7-2.1-3.7-2-1.9-3.4-2.4c-1.3-.6-2.8-.9-4.5-.9s-3.7.3-5.1 1c-1.5.7-2.7 1.6-3.7 2.8s-1.7 2.5-2.2 4.1-.8 3.3-.8 5 .2 3.5.7 5 1.2 2.9 2.3 4c1 1.1 2.3 2 4 2.6 1.6.6 3.6.9 5.8.9s5.8-.5 8.3-1.4c0-1-.2-1.9-.4-2.8-.3-.9-.5-1.6-.9-2.3-1 .4-2.1.7-3.2.9s-2.2.3-3.3.3c-1.9 0-3.5-.4-4.7-1.3-1.2-.8-1.9-2.2-2-4.1h15.6zm-29.2 10.2c1.2.2 2.4.3 3.5.3s2.4 0 3.7-.3l-7.3-13.1 6.2-11.3c-1.1-.2-2.3-.3-3.5-.3s-2.5 0-3.7.3l-6 11.6zm-14.6 0c1.1.2 2.2.3 3.3.3s2.2 0 3.3-.3v-34.5c-1.1-.2-2.2-.3-3.3-.3s-2.2 0-3.3.3v34.4zm-25.3 0c1.1.2 2.2.3 3.3.3s2.2 0 3.3-.3v-12.8c0-1.3.1-2.4.4-3.2s.7-1.5 1.1-1.9 1-.8 1.5-.9c.6-.2 1.1-.2 1.6-.2 1.3 0 2.2.5 2.7 1.4s.8 2.2.8 3.9v13.8c1.1.2 2.2.3 3.3.3s2.2 0 3.3-.3v-15.5c0-3.2-.7-5.6-2.1-7.1s-3.5-2.3-6.2-2.3-1.7.1-2.4.4c-.7.2-1.4.5-2 .9s-1.1.8-1.5 1.3-.8.9-1.1 1.4c0-.2 0-.5-.1-.8 0-.3-.1-.6-.2-1 0-.3-.1-.6-.2-.9 0-.3-.2-.5-.3-.7-.4 0-.9-.2-1.3-.2s-.9 0-1.4 0-1 0-1.5 0c-.4 0-.9.1-1.3.2v24.4zm-19.4 0h.8 1 1.3 1.2l-.8 2.9c-.3.9-.5 1.6-.8 2.1s-.7.9-1 1.1c-.4.2-.7.4-1.1.4s-.8 0-1.1 0-.9 0-1.4-.1c-.5 0-.8-.2-1.1-.3-.3.6-.5 1.3-.6 2-.2.7-.3 1.4-.3 2.1v.4.4c.7.2 1.4.3 2.1.4s1.5.2 2.4.2 1.8 0 2.6-.3c.8-.2 1.6-.5 2.2-.9.7-.4 1.2-1.1 1.8-1.8.5-.8 1-1.8 1.3-3l9.1-30.1c-.8-.2-1.4-.2-2-.3-.5 0-1 0-1.5 0-1.1 0-2.2 0-3.2.3l-5.7 21.2-5.1-21.2c-.5-.1-1.1-.2-1.8-.2s-1.3 0-1.9 0-1 0-1.5 0-1.2.1-1.9.3l7.2 24.4zm-29.4 0h23.2c0-.5.2-1 .2-1.5s0-1 0-1.5 0-.9 0-1.4 0-1-.2-1.5h-16.4v-28c-1.2-.2-2.3-.3-3.4-.3s-2.2 0-3.3.3v33.9z" class="svgShape colorffffff-0 selectable"></path><g><path d="M146.9 33c-1.1-.4-2-.8-2.9-1.3s-1.6-1.1-2.2-1.7c-.6-.7-1.1-1.5-1.4-2.4s-.5-2.1-.5-3.4.3-3 .8-4.2 1.3-2.2 2.3-3.1c1-.8 2.2-1.4 3.6-1.9s3-.6 4.7-.6 3.1.1 4.5.4 2.8.7 4.4 1.2c-.2 1.8-.7 3.6-1.5 5.3-.5-.2-.9-.4-1.4-.6s-1-.3-1.5-.5c-.5-.1-1.2-.2-1.8-.3-.7 0-1.5-.1-2.3-.1s-1.1 0-1.6.1c-.5 0-1 .3-1.5.5-.4.2-.8.6-1.1 1.1s-.4 1.1-.4 1.9.1 1.1.3 1.6c.2.4.5.8.9 1.1s.8.5 1.3.7.9.4 1.4.6l2.8 1.1c1.2.5 2.3 1 3.2 1.5 1 .5 1.8 1.1 2.5 1.8s1.2 1.6 1.6 2.7c.4 1 .6 2.3.6 3.9s-.3 3-.9 4.3-1.4 2.4-2.5 3.4c-1.1.9-2.4 1.7-4 2.2s-3.5.8-5.5.8-1.9 0-2.8 0c-.8 0-1.6-.2-2.3-.3s-1.5-.3-2.2-.5-1.5-.5-2.2-.8c0-.9.3-1.8.5-2.8s.5-2 .9-3c1.3.5 2.5.9 3.7 1.2s2.4.4 3.7.4c2 0 3.5-.4 4.6-1.1s1.7-1.8 1.7-3.3-.1-1.4-.4-1.9-.6-.9-1-1.3c-.4-.3-.9-.6-1.4-.9s-1.1-.5-1.6-.7l-2.9-1.1zM164.4 24.4c.4 0 .9-.2 1.3-.2h1.4c.9 0 1.8 0 2.7.3 0 .2.2.4.3.7 0 .3.2.6.2 1 0 .3.1.7.2 1 0 .3 0 .6.1.8.3-.5.6-1 1-1.5s.9-.9 1.5-1.3 1.2-.7 1.9-.9 1.5-.4 2.4-.4c1.3 0 2.6.2 3.8.7s2.2 1.3 3.1 2.3 1.6 2.3 2 3.8c.5 1.5.7 3.3.7 5.4s-.3 3.8-.9 5.4-1.5 3-2.6 4.1-2.5 2-4.1 2.6-3.5.9-5.5.9-1.1 0-1.6 0-.9-.1-1.3-.2v10.8c-.6 0-1.2.2-1.7.2s-1.1 0-1.6 0-1.1 0-1.6 0-1.1 0-1.7-.2zm6.6 19.1c.8.2 1.8.4 2.9.4 1.9 0 3.4-.6 4.4-1.9 1-1.2 1.5-3.1 1.5-5.7s0-1.9-.2-2.7-.4-1.5-.8-2.1-.8-1.1-1.4-1.4-1.3-.5-2.1-.5-1.4.1-2 .4c-.5.3-1 .7-1.3 1.2s-.6 1.1-.7 1.8c-.2.7-.2 1.4-.2 2.2v8.2zM202 32.7c0-.7-.1-1.4-.4-1.8-.3-.5-.6-.8-1-1.1s-1-.4-1.6-.5c-.6 0-1.3-.1-2.1-.1-1.7 0-3.5.3-5.4 1-.4-.8-.8-1.6-1-2.3s-.3-1.6-.3-2.6c1.4-.5 2.7-.8 4.1-1s2.6-.3 3.8-.3c3.2 0 5.8.8 7.6 2.3 1.8 1.6 2.7 4.1 2.7 7.5v14c-1.1.3-2.4.7-4 1s-3.3.5-5.3.5-3-.1-4.4-.4c-1.3-.3-2.5-.7-3.4-1.4-1-.7-1.7-1.5-2.2-2.5s-.8-2.3-.8-3.8.3-2.8 1-3.8c.6-1 1.5-1.8 2.5-2.4s2.1-1 3.4-1.3c1.2-.3 2.5-.4 3.7-.4s1.9 0 3 .1v-.6zm0 4.8c-.4 0-.8-.1-1.2-.2-.4 0-.8 0-1.2 0-1.5 0-2.7.3-3.6.8s-1.3 1.4-1.3 2.6.2 1.4.5 1.9c.3.4.8.8 1.2 1 .5.2 1 .3 1.5.4h1.4s.9 0 1.4-.1c.5 0 .9-.1 1.2-.2v-6.2zM212.9 29.5h-3l-.2-.9 8.7-11.2h1.1v7.1h5.7c0 .5.2.9.2 1.3v1.2s0 .9 0 1.3 0 .9-.2 1.4h-5.7v9.5c0 1 0 1.7.2 2.3s.4 1.1.7 1.4.7.6 1.1.7 1 .2 1.5.2.9 0 1.4-.1c.5 0 .8-.1 1.2-.2.2.6.4 1.2.5 1.8 0 .6.1 1.2.1 1.7s0 .6 0 .9 0 .5 0 .7c-1.4.3-2.9.5-4.4.5-2.8 0-5-.7-6.5-2s-2.2-3.5-2.2-6.5v-10.9zM229.9 29.5h-3.1c0-.4-.2-.8-.2-1.3s0-.9 0-1.3c0-.8 0-1.7.3-2.5h9.6v24.2c-1.1.2-2.2.3-3.3.3s-2.1 0-3.2-.3v-19.1zM252.7 32.7c0-.7-.1-1.4-.4-1.8-.3-.5-.6-.8-1-1.1s-1-.4-1.6-.5c-.6 0-1.3-.1-2.1-.1-1.7 0-3.5.3-5.4 1-.4-.8-.8-1.6-1-2.3s-.3-1.6-.3-2.6c1.4-.5 2.7-.8 4.1-1s2.6-.3 3.8-.3c3.2 0 5.8.8 7.6 2.3 1.8 1.6 2.7 4.1 2.7 7.5v14c-1.1.3-2.4.7-4 1s-3.3.5-5.3.5-3-.1-4.4-.4c-1.3-.3-2.5-.7-3.4-1.4-1-.7-1.7-1.5-2.2-2.5s-.8-2.3-.8-3.8.3-2.8 1-3.8c.6-1 1.5-1.8 2.5-2.4s2.1-1 3.4-1.3c1.2-.3 2.5-.4 3.7-.4s1.9 0 3 .1v-.6zm0 4.8c-.4 0-.8-.1-1.2-.2-.4 0-.8 0-1.2 0-1.5 0-2.7.3-3.6.8s-1.3 1.4-1.3 2.6.2 1.4.5 1.9c.3.4.8.8 1.2 1 .5.2 1 .3 1.5.4h1.4s.9 0 1.4-.1c.5 0 .9-.1 1.2-.2v-6.2zM262.7 14.4c1.1-.2 2.2-.3 3.3-.3s2.2 0 3.3.3v24.6c0 1 0 1.7.2 2.3.1.6.3 1.1.5 1.4s.5.6.9.7.8.2 1.4.2.5 0 .8 0 .6 0 .9-.1c.3 1.3.5 2.5.5 3.7v.7.7c-.5.2-1.1.3-1.8.3s-1.3 0-1.9 0c-2.4 0-4.3-.7-5.8-2s-2.2-3.5-2.2-6.5v-26zM248.2 14.5l-6.4-4c-.4-.2-.9-.1-1.2.3l-.6.9-1.9-1.2 1.3-2.1c.9-1.4.4-3.3-1-4.1-1.4-.9-3.3-.4-4.1 1l-1.3 2.1-1.9-1.2.6-.9c.2-.4.1-.9-.3-1.2l-6.4-4c-.4-.2-.9-.1-1.2.3l-2.2 3.5c-.2.4-.1.9.3 1.2l6.4 4c.4.2.9.1 1.2-.3l.6-.9 1.9 1.2-1.4 2.3c-1.3.1-2.5.7-3.4 1.7-.3.3-.2.8.2 1l7.4 4.6c.3.2.8 0 .9-.3.5-1.2.5-2.6 0-3.8l1.4-2.3 1.9 1.2-.6.9c-.2.4-.1.9.3 1.2l6.4 4c.4.2.9.1 1.2-.3l2.2-3.5c.2-.4.1-.9-.3-1.2z" fill="#080808" class="svgShape color66ccff-2 selectable"></path></g></svg></g></svg>